<svg width="19" height="22" viewBox="0 0 19 22" fill="none" xmlns="http://www.w3.org/2000/svg">
<g clip-path="url(#clip0_377_1605)">
<path d="M16.6645 5.64406C16.6613 5.59613 16.6436 5.55889 16.621 5.52654C16.5862 5.46459 16.5264 5.41682 16.4349 5.41429C16.4116 5.41363 16.3883 5.41303 16.3649 5.41244C16.2305 5.4088 16.1493 5.52142 16.1353 5.6422C15.7088 9.33114 14.6736 14.7291 10.6136 16.138C4.7769 18.1633 2.47447 9.75833 2.0004 5.64272C1.98631 5.52068 1.90661 5.41103 1.77078 5.41296C1.74735 5.41333 1.72392 5.41363 1.70049 5.414C1.56985 5.41585 1.47969 5.51809 1.47087 5.64376C1.21908 9.21741 1.85426 13.2203 4.41998 15.9077C6.15559 17.7255 8.71056 18.5854 11.1368 17.7086C15.8699 15.9981 16.9524 9.99707 16.6645 5.64421V5.64406Z" fill="white"/>
<path d="M17.6916 17.6215C12.0704 16.7468 5.857 16.7529 0.235257 17.6215C0.103876 17.6419 0.0597608 17.7432 0.0737738 17.8441C0.0607246 17.9443 0.104987 18.0445 0.235627 18.0647C5.85722 18.9334 12.0694 18.9394 17.6907 18.0647C17.9099 18.0306 17.9109 17.6557 17.6915 17.6215H17.6916Z" fill="white"/>
<path d="M16.3762 6.58084C16.3599 6.89711 16.3375 7.20515 16.311 7.5051C17.3916 8.05596 18.1339 9.18223 18.1339 10.4777C18.1339 12.316 16.6372 13.8136 14.7981 13.8136C14.6798 13.8136 14.5616 13.8074 14.4453 13.7952C14.2761 14.0767 14.0966 14.34 13.9111 14.5848C14.1966 14.6481 14.4943 14.6807 14.7981 14.6807C17.1144 14.6807 19.0005 12.7955 19.0005 10.4778C19.0005 8.71906 17.9137 7.2073 16.3763 6.58091L16.3762 6.58084Z" fill="white"/>
<path d="M6.64697 17.996H4.45508V20.1892H6.64697V17.996Z" fill="white"/>
<path d="M8.45707 20.1892H6.64746V22H8.45707V20.1892Z" fill="white"/>
<path d="M9.36136 17.4476H7.55176V19.2584H9.36136V17.4476Z" fill="white"/>
<path d="M15.7207 17.7491H13.9111V19.5598H15.7207V17.7491Z" fill="white"/>
<path d="M11.1709 19.2616H9.36133V20.4614H11.1709V19.2616Z" fill="white"/>
<path d="M4.63943 2.90957C4.39809 2.68403 4.15995 2.46139 3.92188 2.23882C6.39143 -0.499598 11.1557 -0.979902 14.2169 2.22999C13.9775 2.45434 13.7381 2.67869 13.4923 2.90912C12.2834 1.65354 10.8093 0.993842 9.06888 0.99718C7.32934 1.00044 5.85545 1.66377 4.63951 2.90957H4.63943Z" fill="white"/>
<path d="M12.0613 4.33179C11.2395 3.47423 10.2464 3.01522 9.06144 3.017C7.8799 3.01878 6.88972 3.47802 6.07311 4.33372C5.82784 4.11145 5.58628 3.89244 5.34473 3.67351C7.14885 1.5841 10.7052 1.353 12.7917 3.66891C12.549 3.88925 12.3062 4.1096 12.0613 4.33172V4.33179Z" fill="white"/>
<path d="M11.3765 5.11441C11.3478 5.14164 11.3252 5.16561 11.3 5.18653C11.0748 5.37378 10.8491 5.56052 10.6181 5.75185C10.2043 5.28913 9.68246 5.06849 9.07241 5.0679C8.46199 5.0673 7.93854 5.28438 7.51689 5.75185C7.26376 5.5396 7.01079 5.32734 6.75781 5.11516C7.95344 3.68871 10.1563 3.66645 11.3765 5.11441Z" fill="white"/>
<path d="M9.0709 8.05702C8.50838 8.05376 8.06826 7.61596 8.06544 7.06051C8.0627 6.50965 8.49888 6.05694 9.06897 6.05561C9.61585 6.05434 10.0732 6.51076 10.0728 7.05457C10.0724 7.60083 9.61741 8.05613 9.0709 8.05702Z" fill="white"/>
</g>
<defs>
<clipPath id="clip0_377_1605">
<rect width="19" height="22" fill="white"/>
</clipPath>
</defs>
</svg>
