<?xml version="1.0" encoding="UTF-8" standalone="no" ?>
<!DOCTYPE svg PUBLIC "-//W3C//DTD SVG 1.1//EN" "http://www.w3.org/Graphics/SVG/1.1/DTD/svg11.dtd">
<svg xmlns="http://www.w3.org/2000/svg" xmlns:xlink="http://www.w3.org/1999/xlink" version="1.1" width="1080" height="1080" viewBox="0 0 1080 1080" xml:space="preserve">
<desc>Created with Fabric.js 5.2.4</desc>
<defs>
</defs>
<g transform="matrix(1 0 0 1 540 540)" id="787d32ea-995c-411c-a5fa-a22a5705091c"  >
<rect style="stroke: none; stroke-width: 1; stroke-dasharray: none; stroke-linecap: butt; stroke-dashoffset: 0; stroke-linejoin: miter; stroke-miterlimit: 4; fill: rgb(255,255,255); fill-rule: nonzero; opacity: 1; visibility: hidden;" vector-effect="non-scaling-stroke"  x="-540" y="-540" rx="0" ry="0" width="1080" height="1080" />
</g>
<g transform="matrix(1 0 0 1 540 540)" id="723dd867-0ce2-49ec-87e0-e62efabc7092"  >
</g>
<g transform="matrix(1 0 0 1 540 540)" id="ed950a38-80e4-4bf0-83db-f2970cd1dc91"  >
<path style="stroke: rgb(255,255,255); stroke-width: 0; stroke-dasharray: none; stroke-linecap: butt; stroke-dashoffset: 0; stroke-linejoin: miter; stroke-miterlimit: 4; fill: rgb(255,255,255); fill-rule: nonzero; opacity: 1;" vector-effect="non-scaling-stroke"  transform=" translate(-255.99, -256.04)" d="M 416 208 C 416 253.9 401.1 296.3 376 330.7 L 502.6 457.4 C 515.1 469.9 515.1 490.2 502.6 502.7 C 490.1 515.2 469.8 515.2 457.3 502.7 L 330.7 376 C 296.3 401.2 253.89999999999998 416 208 416 C 93.1 416 0 322.9 0 208 C 0 93.10000000000002 93.1 0 208 0 C 322.9 0 416 93.1 416 208 z M 208 352 C 287.5290039756342 352 352 287.5290039756342 352 208 C 352 128.47099602436577 287.5290039756342 64 208 64 C 128.47099602436577 64 64 128.47099602436577 64 208 C 64 287.5290039756342 128.47099602436577 352 208 352 z" stroke-linecap="round" />
</g>
</svg>