<?xml version="1.0" encoding="UTF-8" standalone="no" ?>
<!DOCTYPE svg PUBLIC "-//W3C//DTD SVG 1.1//EN" "http://www.w3.org/Graphics/SVG/1.1/DTD/svg11.dtd">
<svg xmlns="http://www.w3.org/2000/svg" xmlns:xlink="http://www.w3.org/1999/xlink" version="1.1" width="1080" height="1080" viewBox="0 0 1080 1080" xml:space="preserve">
<desc>Created with Fabric.js 5.2.4</desc>
<defs>
</defs>
<g transform="matrix(1 0 0 1 540 540)" id="04df5337-c764-4125-b357-759d027597da"  >
<rect style="stroke: none; stroke-width: 1; stroke-dasharray: none; stroke-linecap: butt; stroke-dashoffset: 0; stroke-linejoin: miter; stroke-miterlimit: 4; fill: rgb(255,255,255); fill-rule: nonzero; opacity: 1; visibility: hidden;" vector-effect="non-scaling-stroke"  x="-540" y="-540" rx="0" ry="0" width="1080" height="1080" />
</g>
<g transform="matrix(1 0 0 1 540 540)" id="6646e0f9-49fb-47e4-851c-cbbcce275c76"  >
</g>
<g transform="matrix(2.06 0 0 2.06 541.05 538.13)" id="d4232507-3dd1-42a1-973a-4c9c7fd9b2d9"  >
<path style="stroke: rgb(242,139,37); stroke-width: 0; stroke-dasharray: none; stroke-linecap: butt; stroke-dashoffset: 0; stroke-linejoin: miter; stroke-miterlimit: 4; fill: rgb(242,139,37); fill-rule: nonzero; opacity: 1;" vector-effect="non-scaling-stroke"  transform=" translate(-160, -256)" d="M 16 144 C 16 64.47099602436575 80.47099602436575 0 160 0 C 239.52900397563425 0 304 64.47099602436572 304 143.99999999999997 C 304 223.52900397563425 239.52900397563425 288 160 288 C 80.47099602436575 288 16 223.52900397563425 16 144 z M 160 80 C 168.8 80 176 72.8 176 64 C 176 55.2 168.8 48 160 48 C 107 48 64 91 64 144 C 64 152.8 71.2 160 80 160 C 88.8 160 96 152.8 96 144 C 96 108.7 124.7 80 160 80 z M 128 480 L 128 317.1 C 138.4 319 149.1 320 160 320 C 170.9 320 181.6 319 192 317.1 L 192 480 C 192 497.7 177.7 512 160 512 C 142.3 512 128 497.7 128 480 z" stroke-linecap="round" />
</g>
<g transform="matrix(NaN NaN NaN NaN 0 0)"  >
<g style=""   >
</g>
</g>
<g transform="matrix(NaN NaN NaN NaN 0 0)"  >
<g style=""   >
</g>
</g>
<g transform="matrix(NaN NaN NaN NaN 0 0)"  >
<g style=""   >
</g>
</g>
<g transform="matrix(NaN NaN NaN NaN 0 0)"  >
<g style=""   >
</g>
</g>
</svg>