<?xml version="1.0" standalone="no"?>
<!DOCTYPE svg PUBLIC "-//W3C//DTD SVG 20010904//EN"
 "http://www.w3.org/TR/2001/REC-SVG-20010904/DTD/svg10.dtd">
<svg version="1.0" xmlns="http://www.w3.org/2000/svg"
 width="129.000000pt" height="274.000000pt" viewBox="0 0 129.000000 274.000000"
 preserveAspectRatio="xMidYMid meet">

<g transform="translate(0.000000,274.000000) scale(0.100000,-0.100000)"
fill="#000000" stroke="none">
<path d="M584 2711 c-64 -37 -111 -90 -120 -137 -9 -49 1 -170 15 -188 7 -8
13 -35 15 -59 2 -45 21 -81 36 -72 4 3 11 -3 14 -12 5 -13 9 -14 15 -5 6 10
16 9 47 -2 l39 -15 -75 -1 c-135 -1 -199 -53 -222 -179 -12 -65 -2 -204 23
-313 l11 -48 64 0 c64 0 64 0 112 -50 68 -70 113 -69 192 5 28 26 46 34 89 38
35 3 59 10 67 21 17 24 38 168 38 272 0 77 -3 98 -24 139 -14 26 -42 62 -63
79 -34 27 -48 31 -120 36 l-82 5 43 13 c35 11 46 20 58 48 8 19 19 32 24 29
17 -10 11 -34 -10 -45 -11 -6 -20 -17 -20 -25 0 -10 7 -8 23 8 15 13 27 39 31
67 4 24 11 49 16 55 15 18 21 76 11 109 -5 17 -12 52 -16 79 -4 31 -15 57 -32
75 -14 15 -20 18 -12 7 11 -17 11 -18 -1 -7 -8 7 -15 18 -15 25 0 12 -92 77
-110 77 -5 0 -33 -13 -61 -29z m116 -14 c0 -1 -27 -2 -60 -2 l-59 0 32 17 c28
14 35 14 59 2 16 -8 28 -16 28 -17z m-223 -174 c-3 -10 -5 -4 -5 12 0 17 2 24
5 18 2 -7 2 -21 0 -30z m113 -38 c18 -21 3 -55 -25 -55 -29 0 -39 14 -31 46 7
27 37 32 56 9z m135 -20 c0 -25 -4 -30 -25 -30 -16 0 -26 6 -28 18 -6 30 6 49
30 45 18 -2 23 -9 23 -33z m-219 -110 c-2 -5 -5 0 -5 12 -1 12 -5 24 -10 27
-11 7 -22 76 -14 90 8 12 36 -113 29 -129z m318 77 c-3 -15 -9 -36 -14 -47 -4
-11 -11 -29 -14 -39 -12 -36 -14 -11 -4 44 13 75 16 82 28 75 6 -3 7 -18 4
-33z m-166 -109 c-10 -2 -26 -2 -35 0 -10 3 -2 5 17 5 19 0 27 -2 18 -5z
m-136 -35 c-9 -9 -12 -7 -12 12 0 19 3 21 12 12 9 -9 9 -15 0 -24z m188 -286
c39 -28 63 -86 55 -129 -9 -48 -60 -99 -108 -108 -105 -20 -194 108 -135 195
46 68 127 86 188 42z"/>
<path d="M555 2460 c3 -5 8 -10 11 -10 2 0 4 5 4 10 0 6 -5 10 -11 10 -5 0 -7
-4 -4 -10z"/>
<path d="M581 1944 c-27 -34 -26 -57 2 -90 47 -54 127 -24 127 47 0 66 -88 95
-129 43z"/>
<path d="M877 2189 c34 -36 72 -111 73 -144 1 -11 14 9 31 45 l30 65 -28 22
c-15 13 -44 26 -63 29 -19 3 -44 8 -55 11 -16 4 -14 -1 12 -28z"/>
<path d="M346 2195 c-22 -7 -48 -22 -58 -32 -18 -19 -18 -20 11 -78 l30 -59
12 48 c7 27 27 68 45 92 38 49 31 54 -40 29z"/>
<path d="M1011 2127 c-18 -22 -41 -97 -41 -133 0 -25 12 -47 50 -93 27 -33 54
-62 59 -66 24 -14 171 82 171 112 0 26 -187 193 -215 193 -7 0 -18 -6 -24 -13z"/>
<path d="M156 2065 c-41 -36 -86 -82 -101 -101 l-27 -35 23 -25 c13 -14 52
-39 87 -56 l64 -32 44 50 c66 74 79 107 64 159 -16 56 -46 105 -64 105 -8 0
-48 -29 -90 -65z"/>
<path d="M1234 1894 c-97 -50 -133 -85 -101 -97 6 -3 -5 -3 -26 0 -35 5 -41 2
-80 -40 -73 -78 -119 -189 -103 -251 7 -29 60 -50 99 -41 38 10 150 128 187
197 l33 61 -29 26 c-20 17 -23 22 -9 17 36 -14 49 -11 62 14 14 28 18 116 5
124 -5 3 -22 -2 -38 -10z"/>
<path d="M10 1840 c0 -27 5 -61 12 -75 10 -23 17 -26 42 -21 28 5 29 4 14 -8
-10 -7 -18 -22 -18 -33 0 -53 156 -232 215 -247 17 -4 40 0 63 11 32 16 37 23
40 57 6 72 -103 247 -163 262 -13 3 -43 -3 -69 -15 -26 -11 -44 -16 -42 -12 3
5 19 14 36 21 16 7 30 16 30 21 0 15 -123 89 -150 89 -5 0 -10 -22 -10 -50z"/>
<path d="M415 1640 c-12 -20 11 -31 56 -28 31 2 44 7 44 18 0 19 -89 27 -100
10z"/>
<path d="M785 1640 c-12 -20 11 -31 56 -28 31 2 44 7 44 18 0 19 -89 27 -100
10z"/>
<path d="M431 1581 c-28 -18 2 -31 73 -31 78 0 92 5 75 27 -13 15 -125 18
-148 4z"/>
<path d="M697 1583 c-4 -3 -7 -12 -7 -20 0 -10 21 -13 83 -13 88 0 104 5 86
27 -12 14 -149 19 -162 6z"/>
<path d="M475 1519 c-16 -24 18 -29 181 -27 142 3 169 5 169 18 0 13 -27 15
-172 18 -118 2 -174 -1 -178 -9z"/>
<path d="M416 1494 c-3 -9 -6 -30 -6 -48 0 -25 7 -36 31 -50 50 -29 155 -133
189 -186 18 -28 35 -50 39 -50 3 0 37 39 76 88 38 48 88 108 112 134 101 111
50 160 -71 69 -79 -60 -122 -76 -171 -62 -36 10 -116 63 -149 100 -23 25 -42
27 -50 5z"/>
<path d="M557 1453 c-4 -3 -2 -12 4 -20 8 -9 35 -13 83 -13 74 0 104 10 92 29
-8 12 -168 16 -179 4z"/>
<path d="M440 708 l0 -656 31 -26 c43 -36 91 -35 130 3 l29 29 0 532 c0 594 6
545 -75 650 -24 30 -59 71 -79 89 l-36 35 0 -656z"/>
<path d="M859 1337 c-38 -31 -115 -131 -139 -177 -19 -38 -20 -59 -20 -570 l0
-532 29 -29 c41 -40 91 -40 132 0 l29 29 0 651 c0 358 -1 651 -2 651 -2 0 -15
-10 -29 -23z"/>
</g>
</svg>
