<?xml version="1.0" standalone="no"?>
<!DOCTYPE svg PUBLIC "-//W3C//DTD SVG 20010904//EN"
 "http://www.w3.org/TR/2001/REC-SVG-20010904/DTD/svg10.dtd">
<svg version="1.0" xmlns="http://www.w3.org/2000/svg"
 width="160.000000pt" height="160.000000pt" viewBox="0 0 160.000000 160.000000"
 preserveAspectRatio="xMidYMid meet">

<g transform="translate(0.000000,160.000000) scale(0.100000,-0.100000)"
fill="#000000" stroke="none">
<path d="M703 1575 c-164 -45 -271 -167 -293 -337 -5 -40 -10 -90 -10 -110 l0
-38 405 0 405 0 0 43 c-1 81 -21 182 -47 237 -81 166 -278 254 -460 205z m66
-211 c27 -22 31 -32 31 -74 0 -42 -4 -52 -31 -74 -19 -17 -43 -26 -64 -26 -21
0 -45 9 -64 26 -27 22 -31 32 -31 74 0 42 4 52 31 74 19 17 43 26 64 26 21 0
45 -9 64 -26z m227 -99 c15 -23 15 -27 0 -50 -29 -44 -86 -28 -86 25 0 53 57
69 86 25z"/>
<path d="M230 967 c-19 -12 -43 -38 -54 -57 -20 -33 -21 -55 -26 -330 l-5
-295 -68 -113 c-49 -80 -67 -121 -65 -140 l3 -27 188 -3 187 -2 10 25 c6 15
10 101 10 193 l0 167 83 -82 c45 -45 99 -89 119 -98 28 -11 75 -15 195 -15
192 0 206 6 313 114 41 42 78 76 82 76 4 0 9 -84 10 -187 l3 -188 190 0 190 0
3 28 c3 21 -14 58 -65 140 l-68 112 -5 295 c-4 183 -10 304 -17 320 -12 28
-46 62 -80 79 -15 8 -181 11 -561 11 l-539 0 -33 -23z m766 -202 c11 -16 11
-25 1 -45 l-13 -25 -173 -3 c-187 -3 -201 1 -201 47 0 49 11 52 199 49 161 -3
175 -4 187 -23z m0 -200 c15 -23 15 -27 0 -50 l-16 -25 -173 0 c-185 0 -197 3
-197 50 0 47 12 50 197 50 l173 0 16 -25z"/>
</g>
</svg>
