<?xml version="1.0" encoding="UTF-8" standalone="no" ?>
<!DOCTYPE svg PUBLIC "-//W3C//DTD SVG 1.1//EN" "http://www.w3.org/Graphics/SVG/1.1/DTD/svg11.dtd">
<svg xmlns="http://www.w3.org/2000/svg" xmlns:xlink="http://www.w3.org/1999/xlink" version="1.1" width="1080" height="1080" viewBox="0 0 1080 1080" xml:space="preserve">
<desc>Created with Fabric.js 5.2.4</desc>
<defs>
</defs>
<rect x="0" y="0" width="100%" height="100%" fill="transparent"></rect>
<g transform="matrix(1 0 0 1 540 540)" id="04df5337-c764-4125-b357-759d027597da"  >
<rect style="stroke: none; stroke-width: 1; stroke-dasharray: none; stroke-linecap: butt; stroke-dashoffset: 0; stroke-linejoin: miter; stroke-miterlimit: 4; fill: rgb(255,255,255); fill-rule: nonzero; opacity: 1; visibility: hidden;" vector-effect="non-scaling-stroke"  x="-540" y="-540" rx="0" ry="0" width="1080" height="1080" />
</g>
<g transform="matrix(1 0 0 1 540 540)" id="6646e0f9-49fb-47e4-851c-cbbcce275c76"  >
</g>
<g transform="matrix(NaN NaN NaN NaN 0 0)"  >
<g style=""   >
</g>
</g>
<g transform="matrix(NaN NaN NaN NaN 0 0)"  >
<g style=""   >
</g>
</g>
<g transform="matrix(NaN NaN NaN NaN 0 0)"  >
<g style=""   >
</g>
</g>
<g transform="matrix(NaN NaN NaN NaN 0 0)"  >
<g style=""   >
</g>
</g>
<g transform="matrix(2.06 0 0 2.06 540.86 538.85)" id="074f2412-a448-4487-b2bc-193b45e6dcf2"  >
<path style="stroke: rgb(242,139,37); stroke-width: 0; stroke-dasharray: none; stroke-linecap: butt; stroke-dashoffset: 0; stroke-linejoin: miter; stroke-miterlimit: 4; fill: rgb(242,139,37); fill-rule: nonzero; opacity: 1;" vector-effect="non-scaling-stroke"  transform=" translate(-191.99, -256)" d="M 32 32 C 32 14.3 46.3 0 64 0 L 320 0 C 337.7 0 352 14.3 352 32 C 352 49.7 337.7 64 320 64 L 290.5 64 L 301.9 212.2 C 338.59999999999997 232.1 367.59999999999997 265.4 381.4 306.9 L 382.4 309.9 C 385.7 319.7 384 330.4 378 338.7 C 372 347 362.3 352 352 352 L 32 352 C 21.7 352 12.100000000000001 347.1 6 338.7 C -0.10000000000000142 330.29999999999995 -1.7000000000000002 319.59999999999997 1.5999999999999996 309.9 L 2.5999999999999996 306.9 C 16.4 265.4 45.4 232.09999999999997 82.1 212.2 L 93.5 64 L 64 64 C 46.3 64 32 49.7 32 32 z M 160 384 L 224 384 L 224 480 C 224 497.7 209.7 512 192 512 C 174.3 512 160 497.7 160 480 L 160 384 z" stroke-linecap="round" />
</g>
<g transform="matrix(NaN NaN NaN NaN 0 0)"  >
<g style=""   >
</g>
</g>
<g transform="matrix(NaN NaN NaN NaN 0 0)"  >
<g style=""   >
</g>
</g>
<g transform="matrix(NaN NaN NaN NaN 0 0)"  >
<g style=""   >
</g>
</g>
<g transform="matrix(NaN NaN NaN NaN 0 0)"  >
<g style=""   >
</g>
</g>
</svg>